<svg width="200" height="43" viewBox="0 0 200 43" fill="none" xmlns="http://www.w3.org/2000/svg">
<g clip-path="url(#clip0_1_2)">
<path d="M15.8538 -0.200002V14.38C16.8938 13.34 18.1138 12.5 19.5138 11.86C20.9538 11.22 22.6738 10.9 24.6738 10.9H25.3938C29.3938 10.9 32.4538 12.18 34.5738 14.74C36.7338 17.3 37.8138 20.86 37.8138 25.42V26.68C37.8138 29.2 37.3938 31.52 36.5538 33.64C35.7138 35.72 34.5138 37.52 32.9538 39.04C31.3938 40.56 29.5138 41.74 27.3138 42.58C25.1138 43.42 22.6538 43.84 19.9338 43.84H19.3338C17.8138 43.84 16.2938 43.7 14.7738 43.42C13.2538 43.14 11.8138 42.74 10.4538 42.22C9.09375 41.7 7.83375 41.08 6.67375 40.36C5.55375 39.6 4.63375 38.78 3.91375 37.9V-0.200002H15.8538ZM15.6138 35.14C16.0538 35.26 16.5538 35.38 17.1138 35.5C17.7138 35.58 18.2938 35.62 18.8538 35.62H18.9738C20.9738 35.62 22.5738 34.86 23.7738 33.34C24.9738 31.82 25.5738 29.8 25.5738 27.28V26.86C25.5738 24.58 25.1938 22.84 24.4338 21.64C23.6738 20.44 22.5738 19.84 21.1338 19.84H20.8338C19.7938 19.84 18.9338 20.08 18.2538 20.56C17.5738 21 17.0338 21.52 16.6338 22.12C16.2738 22.72 16.0138 23.34 15.8538 23.98C15.6938 24.58 15.6138 25.04 15.6138 25.36V35.14ZM42.5341 11.8H52.0741C52.2741 12.44 52.4541 13.24 52.6141 14.2C52.8141 15.12 52.9341 15.88 52.9741 16.48C54.1741 15 55.6741 13.86 57.4741 13.06C59.2741 12.22 61.3141 11.8 63.5941 11.8H64.6141V22.72C64.2141 22.56 63.7341 22.42 63.1741 22.3C62.6141 22.18 62.0741 22.12 61.5541 22.12C59.1541 22.12 57.3741 22.56 56.2141 23.44C55.0541 24.32 54.4741 25.4 54.4741 26.68V43H42.5341V11.8ZM79.9413 43.84C76.0213 43.84 72.9613 42.58 70.7613 40.06C68.6013 37.5 67.5213 33.94 67.5213 29.38V28.12C67.5213 25.6 67.9213 23.3 68.7213 21.22C69.5613 19.14 70.7413 17.34 72.2613 15.82C73.8213 14.3 75.6813 13.12 77.8413 12.28C80.0413 11.44 82.5013 11.02 85.2213 11.02H85.8213C87.3813 11.02 88.9213 11.16 90.4413 11.44C91.9613 11.72 93.4013 12.12 94.7613 12.64C96.1613 13.16 97.4213 13.78 98.5413 14.5C99.6613 15.22 100.601 16.02 101.361 16.9V43H91.8813C91.6813 42.36 91.4813 41.58 91.2813 40.66C91.0813 39.7 90.9613 38.86 90.9213 38.14V37.9C90.4813 38.66 89.9413 39.4 89.3013 40.12C88.6613 40.8 87.9213 41.42 87.0813 41.98C86.2413 42.54 85.2813 42.98 84.2013 43.3C83.1613 43.66 81.9813 43.84 80.6613 43.84H79.9413ZM84.4413 34.96C85.4813 34.96 86.3413 34.74 87.0213 34.3C87.7013 33.82 88.2213 33.28 88.5813 32.68C88.9813 32.08 89.2613 31.48 89.4213 30.88C89.5813 30.24 89.6613 29.76 89.6613 29.44V19.66C89.2213 19.54 88.7013 19.44 88.1013 19.36C87.5413 19.24 86.9813 19.18 86.4213 19.18H86.3013C84.3013 19.18 82.7013 19.94 81.5013 21.46C80.3013 22.98 79.7013 25 79.7013 27.52V27.94C79.7013 30.22 80.0813 31.96 80.8413 33.16C81.6013 34.36 82.7013 34.96 84.1413 34.96H84.4413ZM107.28 11.8H116.76C117 12.48 117.2 13.32 117.36 14.32C117.56 15.32 117.68 16.16 117.72 16.84C119 15.12 120.54 13.72 122.34 12.64C124.14 11.56 126.06 11.02 128.1 11.02C130.22 11.02 132.04 11.52 133.56 12.52C135.08 13.48 136.26 14.84 137.1 16.6C138.38 14.92 139.9 13.56 141.66 12.52C143.46 11.48 145.38 10.96 147.42 10.96C150.66 10.96 153.18 12.06 154.98 14.26C156.82 16.46 157.74 19.46 157.74 23.26V42.94H145.8V25.42C145.8 24.38 145.72 23.54 145.56 22.9C145.44 22.26 145.24 21.76 144.96 21.4C144.68 21.04 144.32 20.8 143.88 20.68C143.44 20.56 142.94 20.5 142.38 20.5C141.22 20.58 140.28 21.1 139.56 22.06C138.84 23.02 138.48 24.6 138.48 26.8V43H126.54V25.48C126.54 24.44 126.46 23.6 126.3 22.96C126.18 22.32 125.98 21.82 125.7 21.46C125.42 21.1 125.06 20.86 124.62 20.74C124.18 20.62 123.68 20.56 123.12 20.56C122 20.64 121.06 21.16 120.3 22.12C119.58 23.08 119.22 24.66 119.22 26.86V43H107.28V11.8ZM174.687 43.84C170.767 43.84 167.707 42.58 165.507 40.06C163.347 37.5 162.267 33.94 162.267 29.38V28.12C162.267 25.6 162.667 23.3 163.467 21.22C164.307 19.14 165.487 17.34 167.007 15.82C168.567 14.3 170.427 13.12 172.587 12.28C174.787 11.44 177.247 11.02 179.967 11.02H180.567C182.127 11.02 183.667 11.16 185.187 11.44C186.707 11.72 188.147 12.12 189.507 12.64C190.907 13.16 192.167 13.78 193.287 14.5C194.407 15.22 195.347 16.02 196.107 16.9V43H186.627C186.427 42.36 186.227 41.58 186.027 40.66C185.827 39.7 185.707 38.86 185.667 38.14V37.9C185.227 38.66 184.687 39.4 184.047 40.12C183.407 40.8 182.667 41.42 181.827 41.98C180.987 42.54 180.027 42.98 178.947 43.3C177.907 43.66 176.727 43.84 175.407 43.84H174.687ZM179.187 34.96C180.227 34.96 181.087 34.74 181.767 34.3C182.447 33.82 182.967 33.28 183.327 32.68C183.727 32.08 184.007 31.48 184.167 30.88C184.327 30.24 184.407 29.76 184.407 29.44V19.66C183.967 19.54 183.447 19.44 182.847 19.36C182.287 19.24 181.727 19.18 181.167 19.18H181.047C179.047 19.18 177.447 19.94 176.247 21.46C175.047 22.98 174.447 25 174.447 27.52V27.94C174.447 30.22 174.827 31.96 175.587 33.16C176.347 34.36 177.447 34.96 178.887 34.96H179.187Z" fill="black"/>
</g>
<defs>
<clipPath id="clip0_1_2">
<rect width="200" height="43" fill="white"/>
</clipPath>
</defs>
</svg>
