<svg width="37" height="43" viewBox="0 0 37 43" fill="none" xmlns="http://www.w3.org/2000/svg">
<g clip-path="url(#clip0_4_10)">
<path d="M14.76 -0.200002V14.38C15.8 13.34 17.02 12.5 18.42 11.86C19.86 11.22 21.58 10.9 23.58 10.9H24.3C28.3 10.9 31.36 12.18 33.48 14.74C35.64 17.3 36.72 20.86 36.72 25.42V26.68C36.72 29.2 36.3 31.52 35.46 33.64C34.62 35.72 33.42 37.52 31.86 39.04C30.3 40.56 28.42 41.74 26.22 42.58C24.02 43.42 21.56 43.84 18.84 43.84H18.24C16.72 43.84 15.2 43.7 13.68 43.42C12.16 43.14 10.72 42.74 9.36 42.22C8 41.7 6.74 41.08 5.58 40.36C4.46 39.6 3.54 38.78 2.82 37.9V-0.200002H14.76ZM14.52 35.14C14.96 35.26 15.46 35.38 16.02 35.5C16.62 35.58 17.2 35.62 17.76 35.62H17.88C19.88 35.62 21.48 34.86 22.68 33.34C23.88 31.82 24.48 29.8 24.48 27.28V26.86C24.48 24.58 24.1 22.84 23.34 21.64C22.58 20.44 21.48 19.84 20.04 19.84H19.74C18.7 19.84 17.84 20.08 17.16 20.56C16.48 21 15.94 21.52 15.54 22.12C15.18 22.72 14.92 23.34 14.76 23.98C14.6 24.58 14.52 25.04 14.52 25.36V35.14Z" fill="black"/>
</g>
<defs>
<clipPath id="clip0_4_10">
<rect width="37" height="43" fill="white"/>
</clipPath>
</defs>
</svg>
