<?xml version="1.0" standalone="no"?>
<!DOCTYPE svg PUBLIC "-//W3C//DTD SVG 20010904//EN"
 "http://www.w3.org/TR/2001/REC-SVG-20010904/DTD/svg10.dtd">
<svg version="1.0" xmlns="http://www.w3.org/2000/svg"
 width="688.000000pt" height="688.000000pt" viewBox="0 0 688.000000 688.000000"
 preserveAspectRatio="xMidYMid meet">
<metadata>
Created by potrace 1.14, written by Peter Selinger 2001-2017
</metadata>
<g transform="translate(0.000000,688.000000) scale(0.100000,-0.100000)"
fill="#000000" stroke="none">
<path d="M930 3852 c0 -2812 1 -3029 17 -3052 36 -54 206 -213 333 -313 127
-100 384 -234 705 -366 24 -10 114 -41 135 -47 8 -2 66 -19 128 -39 l113 -35
1059 0 1059 0 108 36 c60 20 136 50 171 65 34 16 65 29 68 29 7 0 185 89 234
117 122 70 237 147 326 219 27 22 60 48 73 59 46 37 226 219 282 285 30 35 60
71 67 78 6 7 12 17 12 21 0 4 9 17 20 28 11 12 42 57 70 100 27 43 53 83 57
88 43 58 166 313 208 430 33 91 81 248 90 294 2 11 6 25 9 29 2 4 7 27 11 52
4 25 8 47 10 50 2 3 6 24 9 46 4 22 8 51 11 64 42 216 54 901 20 1135 -3 16
-7 53 -9 80 -3 28 -8 64 -11 80 -5 29 -12 72 -21 125 -8 48 -45 195 -66 265
-12 39 -22 72 -23 75 -22 104 -220 505 -256 518 -5 2 -9 8 -9 14 0 10 -33 55
-65 89 -8 9 -15 19 -15 22 0 7 -19 27 -127 139 -91 94 -218 198 -241 198 -7 0
-12 5 -12 10 0 6 -7 10 -15 10 -8 0 -15 3 -15 8 0 8 1 8 -141 79 -88 44 -210
93 -269 108 -8 2 -40 11 -70 19 -30 9 -73 18 -95 22 -22 3 -43 8 -46 10 -4 2
-27 6 -50 10 -24 3 -60 7 -79 10 -93 12 -223 18 -405 17 -217 0 -296 -5 -450
-29 -98 -15 -315 -74 -373 -102 -280 -136 -413 -220 -560 -358 -31 -29 -60
-54 -63 -54 -4 0 -7 177 -7 393 0 215 -1 397 -2 402 -2 6 -1 15 0 20 3 12 2
925 -1 940 -1 6 0 15 1 20 2 9 3 467 1 503 -1 9 -199 12 -956 12 l-955 0 0
-3028z m2877 -156 c10 -3 34 -8 53 -11 19 -3 40 -11 47 -17 7 -6 13 -7 13 -4
0 4 28 -8 62 -26 62 -33 208 -162 208 -184 0 -6 9 -19 20 -29 11 -10 17 -21
15 -26 -3 -4 -1 -10 5 -14 10 -6 28 -43 65 -130 19 -45 17 -37 49 -166 37
-148 50 -289 50 -534 -1 -162 -7 -286 -19 -355 -2 -14 -7 -41 -10 -60 -9 -47
-44 -191 -52 -210 -4 -8 -8 -19 -8 -25 -2 -10 -27 -69 -63 -145 -56 -120 -179
-282 -270 -356 -31 -25 -65 -52 -76 -60 -20 -17 -144 -82 -191 -101 -117 -46
-238 -62 -435 -57 -163 4 -184 6 -265 23 -131 27 -189 43 -195 52 -8 12 -4
1625 3 1670 4 20 11 48 17 63 5 14 7 26 5 26 -2 0 0 12 6 28 6 15 12 34 14 43
6 32 55 145 91 213 33 62 186 236 207 236 5 0 13 5 20 10 51 43 70 56 132 85
38 19 85 37 104 40 19 3 38 8 42 11 4 2 34 7 66 10 32 4 59 8 61 9 5 4 212 -4
229 -9z"/>
</g>
</svg>
